PathFileType	4	(X/Y/Z)	E:\Qualisys_Data\Carbon_Farble_Plate\Data\Amateur_Runner\S1\T1\S1T1V23_c3d.trc
DataRate	CameraRate	NumFrames	NumMarkers	Units	OrigDataRate	OrigDataStartFrame	OrigNumFrames
200.000000	200.000000	4	39	mm	200.000000	136	273
Frame#	Time	LSHO			RSHO			LICST			RICST			LASIS			LHEEL			RASIS			LTROC			RTROC			SACR			LTH1			LSK4			LTH2			LTH3			RHM5			LSK2			LTH4			RTH1			LTOE			RTH2			RTH3			RTH4			LLEP			RLEP			LSK1			LSK3			RSK1			LHM5			RSK2			LFT1			RSK3			RSK4			LLME			RLME			RTOE			RHEEL			RFT1			RFT2			LFT2			
		X1	Y1	Z1	X2	Y2	Z2	X3	Y3	Z3	X4	Y4	Z4	X5	Y5	Z5	X6	Y6	Z6	X7	Y7	Z7	X8	Y8	Z8	X9	Y9	Z9	X10	Y10	Z10	X11	Y11	Z11	X12	Y12	Z12	X13	Y13	Z13	X14	Y14	Z14	X15	Y15	Z15	X16	Y16	Z16	X17	Y17	Z17	X18	Y18	Z18	X19	Y19	Z19	X20	Y20	Z20	X21	Y21	Z21	X22	Y22	Z22	X23	Y23	Z23	X24	Y24	Z24	X25	Y25	Z25	X26	Y26	Z26	X27	Y27	Z27	X28	Y28	Z28	X29	Y29	Z29	X30	Y30	Z30	X31	Y31	Z31	X32	Y32	Z32	X33	Y33	Z33	X34	Y34	Z34	X35	Y35	Z35	X36	Y36	Z36	X37	Y37	Z37	X38	Y38	Z38	X39	Y39	Z39	

137	0.68	150.2921295166016	1521.851684570312	-489.7937622070312	52.45793151855469	1502.494384765625	-183.0276184082031	105.1436004638672	1038.095336914062	-486.4583435058594	76.84841918945312	1064.837524414062	-192.9778747558594	146.1923217773438	999.94970703125	-456.8073120117188	-425.6845397949219	456.7188110351562	-390.9854431152344	116.1083145141602	1019.838195800781	-195.9461212158203	33.03267669677734	920.3511352539062	-511.0646362304688	16.16532325744629	921.24951171875	-170.3415832519531	-28.29247665405273	1066.547729492188	-346.3415222167969	133.0934295654297	752.2062377929688	-464.4868469238281	-287.55224609375	484.8831787109375	-420.8597412109375	58.25647735595703	755.7920532226562	-500.7105712890625	117.6831436157227	649.1053466796875	-451.4893798828125	430.264892578125	123.7823867797852	-182.0773162841797	-193.2928009033203	503.7631530761719	-458.4202880859375	37.94037628173828	659.0308837890625	-479.6170043945312	177.6656494140625	824.9854736328125	-180.1969299316406	-398.5912780761719	204.5899200439453	-358.2773132324219	104.5589828491211	797.1019897460938	-154.5743713378906	213.4104156494141	729.6591796875	-182.4961242675781	136.5481414794922	702.2080078125	-167.3775482177734	22.86486434936523	506.5452270507812	-446.325439453125	233.6405944824219	564.9852294921875	-208.8390655517578	-175.0480499267578	422.5656433105469	-443.1333923339844	-274.9517211914062	406.9015197753906	-437.9045715332031	267.3284912109375	377.3779907226562	-187.5310516357422	-431.0478515625	256.3455200195312	-423.39111328125	187.9062347412109	362.2516174316406	-198.4649200439453	-444.0733642578125	447.7139892578125	-356.3802490234375	288.6710205078125	279.6273193359375	-200.3013763427734	212.4738616943359	265.2683410644531	-222.7802276611328	-396.8590698242188	405.3260803222656	-432.7552490234375	289.6739196777344	139.4732360839844	-201.2718811035156	478.798095703125	183.4393768310547	-253.3658447265625	246.0804138183594	73.90603637695312	-245.4330444335938	269.6238708496094	56.71083068847656	-280.2796936035156	264.5723266601562	51.82921600341797	-223.1378479003906	-454.9184875488281	444.8673095703125	-410.6376342773438
138	0.685	171.0040893554688	1518.465698242188	-488.8662719726562	73.86491394042969	1497.860473632812	-181.8252258300781	125.5848617553711	1034.309692382812	-486.3541564941406	94.0725555419922	1061.51171875	-191.7098236083984	166.525390625	996.2940673828124	-456.0812072753906	-396.5803833007812	463.3057861328125	-390.4335327148438	135.2214202880859	1016.588928222656	-195.2879943847656	54.67880630493164	915.8244018554688	-511.2052001953125	35.39374542236328	918.342529296875	-170.8992156982422	-8.156230926513672	1062.823852539062	-347.1056823730469	157.4617767333984	749.5275268554688	-464.4588928222656	-257.5348815917969	487.7728271484375	-420.0429077148438	82.41512298583984	751.153076171875	-500.4481506347656	144.9316864013672	646.1931762695312	-451.88525390625	441.2138366699219	115.0736694335938	-184.6902618408203	-162.9654693603516	504.53564453125	-457.5968933105469	64.14633178710938	654.1699829101562	-479.3046264648438	197.5543823242188	823.3450927734375	-177.345458984375	-373.7781372070312	210.7818298339844	-358.5777587890625	124.2110214233398	794.4188842773438	-155.1896057128906	233.7868957519531	728.0348510742188	-180.3552703857422	156.2892761230469	700.0679321289062	-169.3070220947266	52.78636169433594	502.1044616699219	-446.2162780761719	252.1131896972656	560.8829956054688	-209.1846313476562	-147.0179901123047	422.6509704589844	-442.8107604980469	-247.1410827636719	409.7135925292969	-437.4653930664062	282.5451965332031	371.7480163574219	-188.4265594482422	-405.0487060546875	262.888427734375	-423.6400756835938	202.8661346435547	358.2232971191406	-198.9449157714844	-414.9859924316406	454.3499755859375	-356.1727294921875	302.0411987304688	273.892822265625	-201.5742034912109	225.0875549316406	260.649658203125	-223.5520935058594	-368.6713256835938	410.7138061523438	-431.9386596679688	300.653564453125	134.3039855957031	-202.2106628417969	489.7901916503906	175.017578125	-255.6523132324219	255.8245239257812	69.2029800415039	-246.2717132568359	278.7725219726562	52.0131950378418	-281.9000244140625	273.0462646484375	46.04061508178711	-224.1486358642578	-425.588623046875	451.6978454589844	-410.2624816894531
139	0.69	191.8499603271484	1515.093383789062	-488.0458984375	95.47190856933594	1492.818603515625	-180.6513061523438	146.2525329589844	1030.30419921875	-486.0464172363281	112.9564437866211	1058.236450195312	-191.8340759277344	186.7303161621094	992.4623413085938	-455.5914611816406	-365.3437194824219	469.3397216796875	-388.6983337402344	153.8069610595703	1012.886962890625	-194.3450012207031	76.05419921875	911.1380004882812	-510.974365234375	54.53788757324219	915.2977294921876	-171.3590698242188	12.02497386932373	1058.406494140625	-347.14599609375	181.8982543945312	746.5340576171875	-464.5189208984375	-226.83984375	490.1822204589844	-419.41796875	106.6874008178711	747.2140502929688	-500.5554809570312	171.7275543212891	643.1759643554688	-452.40087890625	451.3460083007812	105.6981048583984	-187.1012115478516	-132.1460418701172	504.9360656738281	-457.3409118652344	90.53606414794922	649.341064453125	-479.43017578125	217.6689605712891	821.5270385742188	-174.5419006347656	-348.1898498535156	216.2969818115234	-358.6606140136719	143.6744689941406	791.4325561523438	-156.1389007568359	254.4576263427734	726.2581176757812	-179.5065765380859	176.1214599609375	697.9015502929688	-170.8975677490234	82.78959655761719	498.054443359375	-446.5166320800781	269.9379272460938	556.3705444335938	-209.5425720214844	-118.0440292358398	422.764892578125	-442.5538940429688	-218.3673706054688	411.9463806152344	-436.9365844726562	297.3670959472656	366.093017578125	-189.1885528564453	-378.1408996582031	268.9421997070312	-423.76171875	217.3543395996094	353.99853515625	-199.7518768310547	-385.3014221191406	460.2334899902344	-355.9004516601562	314.8341369628906	267.7989501953125	-202.5794830322266	237.7608337402344	256.3260192871094	-224.1754913330078	-339.5650939941406	416.7162170410156	-432.158447265625	311.1787719726562	128.5673522949219	-203.3872985839844	500.2303466796875	165.3882904052734	-258.1649780273438	265.2472229003906	68.50689697265625	-247.9920043945312	286.2895812988281	49.78361511230469	-283.8466796875	280.8188171386719	43.91563415527344	-225.6416015625	-395.6104736328125	458.1216735839844	-410.2373046875
140	0.695	212.5006256103516	1511.341186523438	-487.107177734375	116.6687316894531	1487.873779296875	-179.4245147705078	166.3295745849609	1026.020629882812	-486.0101318359375	130.291015625	1054.63720703125	-190.7964019775391	206.9515380859375	988.5464477539062	-455.2171936035156	-334.7620544433594	474.830322265625	-388.1772766113281	174.3469696044922	1010.134155273438	-193.1837005615234	97.28231048583984	906.1412353515624	-510.8816833496094	73.77677154541016	911.96142578125	-171.9168243408203	31.92138481140137	1053.979614257812	-347.6277770996094	206.3767547607422	743.750244140625	-465.0806274414062	-195.6523132324219	492.3348388671875	-418.95703125	130.4921417236328	742.4016723632812	-500.3524169921875	198.4466705322266	640.0433959960938	-453.1607971191406	459.7821044921875	95.04138946533205	-189.2024536132812	-100.7329177856445	505.0610656738281	-456.4591979980469	117.0455703735352	644.2652587890625	-479.2532348632812	237.9363098144531	819.0104370117188	-172.1448516845703	-321.6671447753906	220.9416351318359	-359.5020751953125	163.0939025878906	788.37158203125	-156.2588653564453	273.3497619628906	723.356689453125	-179.3628082275391	195.9892272949219	695.091552734375	-172.3142547607422	113.3744659423828	493.6714782714844	-446.8686828613281	287.3439331054688	551.4426879882812	-209.6400146484375	-88.38385009765625	422.6240234375	-442.7197265625	-189.1262969970703	414.2665405273438	-437.0984497070312	311.2344055175781	359.8180847167969	-189.5773010253906	-350.144287109375	274.6319580078125	-424.5360107421875	231.1852111816406	349.5460510253906	-200.5147705078125	-355.2847900390625	465.8933410644531	-355.1702270507812	327.3204956054688	261.5840759277344	-203.3605651855469	250.0603332519531	252.5074310302734	-223.39208984375	-309.4088134765625	421.9411010742188	-431.6631469726562	320.929443359375	123.7535781860352	-204.5182952880859	510.4129943847656	152.8839874267578	-260.9769287109375	271.6503295898438	71.79071807861328	-248.2713928222656	290.4740905761719	50.78253555297852	-284.3424072265625	284.7602844238281	47.73163986206055	-225.5586547851562	-364.7149353027344	463.970458984375	-410.3011169433594
